<?xml version="1.0" encoding="utf-8"?>
<!-- Generator: Adobe Illustrator 21.1.0, SVG Export Plug-In . SVG Version: 6.00 Build 0)  -->
<svg version="1.1" id="Layer_1" xmlns="http://www.w3.org/2000/svg" xmlns:xlink="http://www.w3.org/1999/xlink" x="0px" y="0px"
	 viewBox="0 0 1366 768" style="enable-background:new 0 0 1366 768;" xml:space="preserve">
<style type="text/css">
	.st0{clip-path:url(#SVGID_2_);}
	.st1{clip-path:url(#SVGID_4_);}
	.st2{clip-path:url(#SVGID_6_);}
	.st3{fill:#FFFFFF;}
	.st4{clip-path:url(#SVGID_8_);}
</style>
<g>
	<defs>
		<polygon id="SVGID_1_" points="1046,-106 66.1,873.9 1643,873.9 1643,-106 		"/>
	</defs>
	<clipPath id="SVGID_2_">
		<use xlink:href="#SVGID_1_"  style="overflow:visible;"/>
	</clipPath>
	<g class="st0">
		<path d="M405.5,503.7l9.9,29.8h-4l-2.8-9.2h-11.1l-2.9,9.2h-3.6l10-29.8H405.5z M398.4,521.4h9.2c0,0-2.3-7.4-3.1-10l-1.4-4.6
			l-1.5,4.4C401.4,511.8,398.4,521.4,398.4,521.4"/>
		<path d="M464.4,503.7h5.2l5.4,19.5c0.6,2.1,0.8,2.9,1.2,5.2c0.5-2.5,0.7-3.4,1.1-4.9l5.6-19.8h5.3l2.6,29.8h-3.6l-1.7-21.9
			c-0.1-1.9-0.2-5.1-0.2-5.1c-0.3,1.5-0.8,3.5-1.2,4.7l-6.4,22.3h-3l-5.9-21.2c-0.6-2.3-1.1-3.7-1.5-5.8c0,0-0.2,3.9-0.4,5.8
			l-1.6,21.2h-3.4L464.4,503.7z"/>
		<path d="M556.8,505.9l-1.6,2.6c-2.9-1.9-4.7-2.5-7.3-2.5c-3.7,0-6,1.9-6,4.9c0,2.4,1.4,3.8,5,4.9l3.4,1.1c2.6,0.8,4.1,1.6,5.3,3
			c1.2,1.4,2,3.4,2,5.3c0,2.8-1.5,5.4-4.1,7.2c-1.9,1.3-3.9,1.8-6.7,1.8c-3.6,0-6.6-0.9-9.6-2.7l1.6-2.8c2.5,1.8,5,2.6,8,2.6
			c2.3,0,3.5-0.3,4.7-1.3c1.4-1.1,2.1-2.5,2.1-4.3c0-2.7-1.7-4.5-5.3-5.6l-3-0.9c-2.7-0.8-4.1-1.4-5.3-2.7c-1.2-1.3-1.9-2.9-1.9-4.9
			c0-5.1,3.9-8.6,9.6-8.6C551,503,554,504,556.8,505.9"/>
		<polygon points="603.7,503.7 623.5,503.7 623.2,506.7 615.2,506.7 615.2,533.5 611.7,533.5 611.7,506.7 603.7,506.7 		"/>
		<polygon points="670.9,503.9 687.2,503.9 686.8,506.9 674.6,506.9 674.6,516.5 684.8,516.5 684.8,519.6 674.6,519.6 674.6,530.4 
			687.7,530.4 687.7,533.5 670.9,533.5 		"/>
		<path d="M735.5,503.7h6.9c4.1,0,6.1,0.7,7.5,1.9c1.3,1.1,2.9,3.1,2.9,6.3c0,4.9-3.2,8.2-7.9,8.2h-0.4c1.4,1.1,2.4,2.5,3,3.3
			c0.6,0.8,1.4,2,2.4,3.5c1.1,1.6,4.4,6.6,4.4,6.6H750c-0.7-1.6-1-2.1-2.3-4.1c-1.9-2.8-3.7-5.4-5.3-7.4c-1.2-1.5-1.8-1.9-3.3-1.9
			v13.4h-3.5V503.7z M739.1,506.7v11.1h3.2c2.6,0,4.3-0.4,5.4-1.5c1-0.9,1.5-2.5,1.5-4.5c0-2-1.2-3.9-2.9-4.5
			c-1-0.4-2.1-0.6-3.7-0.6H739.1z"/>
		<path d="M802.3,504h6c4.6,0,6.7,0.2,9.6,2.3c3.4,2.4,5,6.7,5,12.5c0,5.2-1.4,8.8-3.4,11c-2.6,2.9-4.7,3.7-9.4,3.7h-7.8V504z
			 M805.9,506.9v23.7h3.2c1.9,0,2.6,0,3.6-0.2c1.8-0.3,3.4-1.4,4.3-2.9c1.4-2.2,2-5.1,2-8.2c0-4.5-0.6-7.3-2.6-9.6
			c-2-2.3-3.9-2.7-7-2.7H805.9z"/>
		<path d="M882.3,503.7l9.9,29.8h-4.1l-2.8-9.2h-11.1l-2.9,9.2h-3.6l10-29.8H882.3z M875.1,521.4h9.2c0,0-2.3-7.4-3.1-10l-1.4-4.6
			l-1.5,4.4C878.1,511.8,875.1,521.4,875.1,521.4"/>
		<path d="M941.2,503.7h5.2l5.4,19.5c0.6,2.1,0.8,2.9,1.2,5.2c0.5-2.5,0.7-3.4,1.1-4.9l5.6-19.8h5.3l2.6,29.8H964l-1.7-21.9
			c-0.1-1.9-0.2-5.1-0.2-5.1c-0.3,1.5-0.8,3.5-1.2,4.7l-6.4,22.3h-3l-5.9-21.2c-0.6-2.3-1-3.7-1.5-5.8c0,0-0.2,3.9-0.3,5.8
			l-1.6,21.2h-3.4L941.2,503.7z"/>
		<g>
			<polygon points="525.6,461.2 485.8,383 446.2,461.2 390.8,461.2 460.3,342.2 400.3,238.9 454.9,238.9 484.8,298.5 515.1,238.9 
				568.4,238.9 510.7,339.4 579.5,461.2 			"/>
			<polygon points="741.1,461.2 701.2,383 661.6,461.2 606.2,461.2 675.7,342.2 615.7,238.9 670.3,238.9 700.2,298.5 730.5,238.9 
				783.8,238.9 726.1,339.4 794.9,461.2 			"/>
			<path d="M825.6,451.2c19.8,8.8,41.9,13.6,62.4,13.6c55,0,90.5-28.9,90.5-73.5c0-32.2-19.7-55.2-55.3-64.9l-26.8-7.4
				c-18.7-5.2-25.4-11.3-25.4-23.4c0-15.7,13.2-26.6,32-26.6c13.4,0,27.4,3.5,42,11.4l18-31.8c-17.3-9.4-40.7-14.8-61.3-14.8
				c-46.1,0-78.3,27.8-78.3,67.5c0,12.2,3.1,23.4,9.1,33.2c7.8,13,21,21.5,43,27.6l24.6,6.7c20.1,5.2,29.8,14.9,29.8,29.8
				c0,20.5-13.8,31.4-40,31.4c-15.4,0-29-2.9-45.8-10.4L825.6,451.2z"/>
		</g>
	</g>
</g>
<g>
	<defs>
		<polygon id="SVGID_3_" points="1046,-106 66.1,873.9 -277,873.9 -277,-106 		"/>
	</defs>
	<clipPath id="SVGID_4_">
		<use xlink:href="#SVGID_3_"  style="overflow:visible;"/>
	</clipPath>
	<g class="st1">
		<path d="M405.5,503.7l9.9,29.8h-4l-2.8-9.2h-11.1l-2.9,9.2h-3.6l10-29.8H405.5z M398.4,521.4h9.2c0,0-2.3-7.4-3.1-10l-1.4-4.6
			l-1.5,4.4C401.4,511.8,398.4,521.4,398.4,521.4"/>
		<path d="M464.4,503.7h5.2l5.4,19.5c0.6,2.1,0.8,2.9,1.2,5.2c0.5-2.5,0.7-3.4,1.1-4.9l5.6-19.8h5.3l2.6,29.8h-3.6l-1.7-21.9
			c-0.1-1.9-0.2-5.1-0.2-5.1c-0.3,1.5-0.8,3.5-1.2,4.7l-6.4,22.3h-3l-5.9-21.2c-0.6-2.3-1.1-3.7-1.5-5.8c0,0-0.2,3.9-0.4,5.8
			l-1.6,21.2h-3.4L464.4,503.7z"/>
		<path d="M556.8,505.9l-1.6,2.6c-2.9-1.9-4.7-2.5-7.3-2.5c-3.7,0-6,1.9-6,4.9c0,2.4,1.4,3.8,5,4.9l3.4,1.1c2.6,0.8,4.1,1.6,5.3,3
			c1.2,1.4,2,3.4,2,5.3c0,2.8-1.5,5.4-4.1,7.2c-1.9,1.3-3.9,1.8-6.7,1.8c-3.6,0-6.6-0.9-9.6-2.7l1.6-2.8c2.5,1.8,5,2.6,8,2.6
			c2.3,0,3.5-0.3,4.7-1.3c1.4-1.1,2.1-2.5,2.1-4.3c0-2.7-1.7-4.5-5.3-5.6l-3-0.9c-2.7-0.8-4.1-1.4-5.3-2.7c-1.2-1.3-1.9-2.9-1.9-4.9
			c0-5.1,3.9-8.6,9.6-8.6C551,503,554,504,556.8,505.9"/>
		<polygon points="603.7,503.7 623.5,503.7 623.2,506.7 615.2,506.7 615.2,533.5 611.7,533.5 611.7,506.7 603.7,506.7 		"/>
		<polygon points="670.9,503.9 687.2,503.9 686.8,506.9 674.6,506.9 674.6,516.5 684.8,516.5 684.8,519.6 674.6,519.6 674.6,530.4 
			687.7,530.4 687.7,533.5 670.9,533.5 		"/>
		<path d="M735.5,503.7h6.9c4.1,0,6.1,0.7,7.5,1.9c1.3,1.1,2.9,3.1,2.9,6.3c0,4.9-3.2,8.2-7.9,8.2h-0.4c1.4,1.1,2.4,2.5,3,3.3
			c0.6,0.8,1.4,2,2.4,3.5c1.1,1.6,4.4,6.6,4.4,6.6H750c-0.7-1.6-1-2.1-2.3-4.1c-1.9-2.8-3.7-5.4-5.3-7.4c-1.2-1.5-1.8-1.9-3.3-1.9
			v13.4h-3.5V503.7z M739.1,506.7v11.1h3.2c2.6,0,4.3-0.4,5.4-1.5c1-0.9,1.5-2.5,1.5-4.5c0-2-1.2-3.9-2.9-4.5
			c-1-0.4-2.1-0.6-3.7-0.6H739.1z"/>
		<path d="M802.3,504h6c4.6,0,6.7,0.2,9.6,2.3c3.4,2.4,5,6.7,5,12.5c0,5.2-1.4,8.8-3.4,11c-2.6,2.9-4.7,3.7-9.4,3.7h-7.8V504z
			 M805.9,506.9v23.7h3.2c1.9,0,2.6,0,3.6-0.2c1.8-0.3,3.4-1.4,4.3-2.9c1.4-2.2,2-5.1,2-8.2c0-4.5-0.6-7.3-2.6-9.6
			c-2-2.3-3.9-2.7-7-2.7H805.9z"/>
		<path d="M882.3,503.7l9.9,29.8h-4.1l-2.8-9.2h-11.1l-2.9,9.2h-3.6l10-29.8H882.3z M875.1,521.4h9.2c0,0-2.3-7.4-3.1-10l-1.4-4.6
			l-1.5,4.4C878.1,511.8,875.1,521.4,875.1,521.4"/>
		<path d="M941.2,503.7h5.2l5.4,19.5c0.6,2.1,0.8,2.9,1.2,5.2c0.5-2.5,0.7-3.4,1.1-4.9l5.6-19.8h5.3l2.6,29.8H964l-1.7-21.9
			c-0.1-1.9-0.2-5.1-0.2-5.1c-0.3,1.5-0.8,3.5-1.2,4.7l-6.4,22.3h-3l-5.9-21.2c-0.6-2.3-1-3.7-1.5-5.8c0,0-0.2,3.9-0.3,5.8
			l-1.6,21.2h-3.4L941.2,503.7z"/>
		<g>
			<polygon points="525.6,461.2 485.8,383 446.2,461.2 390.8,461.2 460.3,342.2 400.3,238.9 454.9,238.9 484.8,298.5 515.1,238.9 
				568.4,238.9 510.7,339.4 579.5,461.2 			"/>
			<polygon points="741.1,461.2 701.2,383 661.6,461.2 606.2,461.2 675.7,342.2 615.7,238.9 670.3,238.9 700.2,298.5 730.5,238.9 
				783.8,238.9 726.1,339.4 794.9,461.2 			"/>
			<path d="M825.6,451.2c19.8,8.8,41.9,13.6,62.4,13.6c55,0,90.5-28.9,90.5-73.5c0-32.2-19.7-55.2-55.3-64.9l-26.8-7.4
				c-18.7-5.2-25.4-11.3-25.4-23.4c0-15.7,13.2-26.6,32-26.6c13.4,0,27.4,3.5,42,11.4l18-31.8c-17.3-9.4-40.7-14.8-61.3-14.8
				c-46.1,0-78.3,27.8-78.3,67.5c0,12.2,3.1,23.4,9.1,33.2c7.8,13,21,21.5,43,27.6l24.6,6.7c20.1,5.2,29.8,14.9,29.8,29.8
				c0,20.5-13.8,31.4-40,31.4c-15.4,0-29-2.9-45.8-10.4L825.6,451.2z"/>
		</g>
	</g>
</g>
<g>
	<defs>
		<polygon id="SVGID_5_" points="1046,-106 66.1,873.9 1643,873.9 1643,-106 		"/>
	</defs>
	<clipPath id="SVGID_6_">
		<use xlink:href="#SVGID_5_"  style="overflow:visible;"/>
	</clipPath>
	<g class="st2">
		<path class="st3" d="M405.5,503.7l9.9,29.8h-4l-2.8-9.2h-11.1l-2.9,9.2h-3.6l10-29.8H405.5z M398.4,521.4h9.2c0,0-2.3-7.4-3.1-10
			l-1.4-4.6l-1.5,4.4C401.4,511.8,398.4,521.4,398.4,521.4"/>
		<path class="st3" d="M464.4,503.7h5.2l5.4,19.5c0.6,2.1,0.8,2.9,1.2,5.2c0.5-2.5,0.7-3.4,1.1-4.9l5.6-19.8h5.3l2.6,29.8h-3.6
			l-1.7-21.9c-0.1-1.9-0.2-5.1-0.2-5.1c-0.3,1.5-0.8,3.5-1.2,4.7l-6.4,22.3h-3l-5.9-21.2c-0.6-2.3-1.1-3.7-1.5-5.8
			c0,0-0.2,3.9-0.4,5.8l-1.6,21.2h-3.4L464.4,503.7z"/>
		<path class="st3" d="M556.8,505.9l-1.6,2.6c-2.9-1.9-4.7-2.5-7.3-2.5c-3.7,0-6,1.9-6,4.9c0,2.4,1.4,3.8,5,4.9l3.4,1.1
			c2.6,0.8,4.1,1.6,5.3,3c1.2,1.4,2,3.4,2,5.3c0,2.8-1.5,5.4-4.1,7.2c-1.9,1.3-3.9,1.8-6.7,1.8c-3.6,0-6.6-0.9-9.6-2.7l1.6-2.8
			c2.5,1.8,5,2.6,8,2.6c2.3,0,3.5-0.3,4.7-1.3c1.4-1.1,2.1-2.5,2.1-4.3c0-2.7-1.7-4.5-5.3-5.6l-3-0.9c-2.7-0.8-4.1-1.4-5.3-2.7
			c-1.2-1.3-1.9-2.9-1.9-4.9c0-5.1,3.9-8.6,9.6-8.6C551,503,554,504,556.8,505.9"/>
		<polygon class="st3" points="603.7,503.7 623.5,503.7 623.2,506.7 615.2,506.7 615.2,533.5 611.7,533.5 611.7,506.7 603.7,506.7 
					"/>
		<polygon class="st3" points="670.9,503.9 687.2,503.9 686.8,506.9 674.6,506.9 674.6,516.5 684.8,516.5 684.8,519.6 674.6,519.6 
			674.6,530.4 687.7,530.4 687.7,533.5 670.9,533.5 		"/>
		<path class="st3" d="M735.5,503.7h6.9c4.1,0,6.1,0.7,7.5,1.9c1.3,1.1,2.9,3.1,2.9,6.3c0,4.9-3.2,8.2-7.9,8.2h-0.4
			c1.4,1.1,2.4,2.5,3,3.3c0.6,0.8,1.4,2,2.4,3.5c1.1,1.6,4.4,6.6,4.4,6.6H750c-0.7-1.6-1-2.1-2.3-4.1c-1.9-2.8-3.7-5.4-5.3-7.4
			c-1.2-1.5-1.8-1.9-3.3-1.9v13.4h-3.5V503.7z M739.1,506.7v11.1h3.2c2.6,0,4.3-0.4,5.4-1.5c1-0.9,1.5-2.5,1.5-4.5
			c0-2-1.2-3.9-2.9-4.5c-1-0.4-2.1-0.6-3.7-0.6H739.1z"/>
		<path class="st3" d="M802.3,504h6c4.6,0,6.7,0.2,9.6,2.3c3.4,2.4,5,6.7,5,12.5c0,5.2-1.4,8.8-3.4,11c-2.6,2.9-4.7,3.7-9.4,3.7
			h-7.8V504z M805.9,506.9v23.7h3.2c1.9,0,2.6,0,3.6-0.2c1.8-0.3,3.4-1.4,4.3-2.9c1.4-2.2,2-5.1,2-8.2c0-4.5-0.6-7.3-2.6-9.6
			c-2-2.3-3.9-2.7-7-2.7H805.9z"/>
		<path class="st3" d="M882.3,503.7l9.9,29.8h-4.1l-2.8-9.2h-11.1l-2.9,9.2h-3.6l10-29.8H882.3z M875.1,521.4h9.2
			c0,0-2.3-7.4-3.1-10l-1.4-4.6l-1.5,4.4C878.1,511.8,875.1,521.4,875.1,521.4"/>
		<path class="st3" d="M941.2,503.7h5.2l5.4,19.5c0.6,2.1,0.8,2.9,1.2,5.2c0.5-2.5,0.7-3.4,1.1-4.9l5.6-19.8h5.3l2.6,29.8H964
			l-1.7-21.9c-0.1-1.9-0.2-5.1-0.2-5.1c-0.3,1.5-0.8,3.5-1.2,4.7l-6.4,22.3h-3l-5.9-21.2c-0.6-2.3-1-3.7-1.5-5.8
			c0,0-0.2,3.9-0.3,5.8l-1.6,21.2h-3.4L941.2,503.7z"/>
		<g>
			<polygon class="st3" points="525.6,461.2 485.8,383 446.2,461.2 390.8,461.2 460.3,342.2 400.3,238.9 454.9,238.9 484.8,298.5 
				515.1,238.9 568.4,238.9 510.7,339.4 579.5,461.2 			"/>
			<polygon class="st3" points="741.1,461.2 701.2,383 661.6,461.2 606.2,461.2 675.7,342.2 615.7,238.9 670.3,238.9 700.2,298.5 
				730.5,238.9 783.8,238.9 726.1,339.4 794.9,461.2 			"/>
			<path class="st3" d="M825.6,451.2c19.8,8.8,41.9,13.6,62.4,13.6c55,0,90.5-28.9,90.5-73.5c0-32.2-19.7-55.2-55.3-64.9l-26.8-7.4
				c-18.7-5.2-25.4-11.3-25.4-23.4c0-15.7,13.2-26.6,32-26.6c13.4,0,27.4,3.5,42,11.4l18-31.8c-17.3-9.4-40.7-14.8-61.3-14.8
				c-46.1,0-78.3,27.8-78.3,67.5c0,12.2,3.1,23.4,9.1,33.2c7.8,13,21,21.5,43,27.6l24.6,6.7c20.1,5.2,29.8,14.9,29.8,29.8
				c0,20.5-13.8,31.4-40,31.4c-15.4,0-29-2.9-45.8-10.4L825.6,451.2z"/>
		</g>
	</g>
</g>
<g>
	<defs>
		<polygon id="SVGID_7_" points="1046,-106 66.1,873.9 -277,873.9 -277,-106 		"/>
	</defs>
	<clipPath id="SVGID_8_">
		<use xlink:href="#SVGID_7_"  style="overflow:visible;"/>
	</clipPath>
	<g class="st4">
		<path class="st3" d="M405.5,503.7l9.9,29.8h-4l-2.8-9.2h-11.1l-2.9,9.2h-3.6l10-29.8H405.5z M398.4,521.4h9.2c0,0-2.3-7.4-3.1-10
			l-1.4-4.6l-1.5,4.4C401.4,511.8,398.4,521.4,398.4,521.4"/>
		<path class="st3" d="M464.4,503.7h5.2l5.4,19.5c0.6,2.1,0.8,2.9,1.2,5.2c0.5-2.5,0.7-3.4,1.1-4.9l5.6-19.8h5.3l2.6,29.8h-3.6
			l-1.7-21.9c-0.1-1.9-0.2-5.1-0.2-5.1c-0.3,1.5-0.8,3.5-1.2,4.7l-6.4,22.3h-3l-5.9-21.2c-0.6-2.3-1.1-3.7-1.5-5.8
			c0,0-0.2,3.9-0.4,5.8l-1.6,21.2h-3.4L464.4,503.7z"/>
		<path class="st3" d="M556.8,505.9l-1.6,2.6c-2.9-1.9-4.7-2.5-7.3-2.5c-3.7,0-6,1.9-6,4.9c0,2.4,1.4,3.8,5,4.9l3.4,1.1
			c2.6,0.8,4.1,1.6,5.3,3c1.2,1.4,2,3.4,2,5.3c0,2.8-1.5,5.4-4.1,7.2c-1.9,1.3-3.9,1.8-6.7,1.8c-3.6,0-6.6-0.9-9.6-2.7l1.6-2.8
			c2.5,1.8,5,2.6,8,2.6c2.3,0,3.5-0.3,4.7-1.3c1.4-1.1,2.1-2.5,2.1-4.3c0-2.7-1.7-4.5-5.3-5.6l-3-0.9c-2.7-0.8-4.1-1.4-5.3-2.7
			c-1.2-1.3-1.9-2.9-1.9-4.9c0-5.1,3.9-8.6,9.6-8.6C551,503,554,504,556.8,505.9"/>
		<polygon class="st3" points="603.7,503.7 623.5,503.7 623.2,506.7 615.2,506.7 615.2,533.5 611.7,533.5 611.7,506.7 603.7,506.7 
					"/>
		<polygon class="st3" points="670.9,503.9 687.2,503.9 686.8,506.9 674.6,506.9 674.6,516.5 684.8,516.5 684.8,519.6 674.6,519.6 
			674.6,530.4 687.7,530.4 687.7,533.5 670.9,533.5 		"/>
		<path class="st3" d="M735.5,503.7h6.9c4.1,0,6.1,0.7,7.5,1.9c1.3,1.1,2.9,3.1,2.9,6.3c0,4.9-3.2,8.2-7.9,8.2h-0.4
			c1.4,1.1,2.4,2.5,3,3.3c0.6,0.8,1.4,2,2.4,3.5c1.1,1.6,4.4,6.6,4.4,6.6H750c-0.7-1.6-1-2.1-2.3-4.1c-1.9-2.8-3.7-5.4-5.3-7.4
			c-1.2-1.5-1.8-1.9-3.3-1.9v13.4h-3.5V503.7z M739.1,506.7v11.1h3.2c2.6,0,4.3-0.4,5.4-1.5c1-0.9,1.5-2.5,1.5-4.5
			c0-2-1.2-3.9-2.9-4.5c-1-0.4-2.1-0.6-3.7-0.6H739.1z"/>
		<path class="st3" d="M802.3,504h6c4.6,0,6.7,0.2,9.6,2.3c3.4,2.4,5,6.7,5,12.5c0,5.2-1.4,8.8-3.4,11c-2.6,2.9-4.7,3.7-9.4,3.7
			h-7.8V504z M805.9,506.9v23.7h3.2c1.9,0,2.6,0,3.6-0.2c1.8-0.3,3.4-1.4,4.3-2.9c1.4-2.2,2-5.1,2-8.2c0-4.5-0.6-7.3-2.6-9.6
			c-2-2.3-3.9-2.7-7-2.7H805.9z"/>
		<path class="st3" d="M882.3,503.7l9.9,29.8h-4.1l-2.8-9.2h-11.1l-2.9,9.2h-3.6l10-29.8H882.3z M875.1,521.4h9.2
			c0,0-2.3-7.4-3.1-10l-1.4-4.6l-1.5,4.4C878.1,511.8,875.1,521.4,875.1,521.4"/>
		<path class="st3" d="M941.2,503.7h5.2l5.4,19.5c0.6,2.1,0.8,2.9,1.2,5.2c0.5-2.5,0.7-3.4,1.1-4.9l5.6-19.8h5.3l2.6,29.8H964
			l-1.7-21.9c-0.1-1.9-0.2-5.1-0.2-5.1c-0.3,1.5-0.8,3.5-1.2,4.7l-6.4,22.3h-3l-5.9-21.2c-0.6-2.3-1-3.7-1.5-5.8
			c0,0-0.2,3.9-0.3,5.8l-1.6,21.2h-3.4L941.2,503.7z"/>
		<g>
			<polygon class="st3" points="525.6,461.2 485.8,383 446.2,461.2 390.8,461.2 460.3,342.2 400.3,238.9 454.9,238.9 484.8,298.5 
				515.1,238.9 568.4,238.9 510.7,339.4 579.5,461.2 			"/>
			<polygon class="st3" points="741.1,461.2 701.2,383 661.6,461.2 606.2,461.2 675.7,342.2 615.7,238.9 670.3,238.9 700.2,298.5 
				730.5,238.9 783.8,238.9 726.1,339.4 794.9,461.2 			"/>
			<path class="st3" d="M825.6,451.2c19.8,8.8,41.9,13.6,62.4,13.6c55,0,90.5-28.9,90.5-73.5c0-32.2-19.7-55.2-55.3-64.9l-26.8-7.4
				c-18.7-5.2-25.4-11.3-25.4-23.4c0-15.7,13.2-26.6,32-26.6c13.4,0,27.4,3.5,42,11.4l18-31.8c-17.3-9.4-40.7-14.8-61.3-14.8
				c-46.1,0-78.3,27.8-78.3,67.5c0,12.2,3.1,23.4,9.1,33.2c7.8,13,21,21.5,43,27.6l24.6,6.7c20.1,5.2,29.8,14.9,29.8,29.8
				c0,20.5-13.8,31.4-40,31.4c-15.4,0-29-2.9-45.8-10.4L825.6,451.2z"/>
		</g>
	</g>
</g>
</svg>
